<svg xmlns="http://www.w3.org/2000/svg" width="16" height="15" viewBox="0 0 16 15" fill="none">
  <g clip-path="url(#clip0_215_13325)">
    <path d="M7.91003 15C12.0522 15 15.41 11.6421 15.41 7.5C15.41 3.35786 12.0522 0 7.91003 0C3.7679 0 0.410034 3.35786 0.410034 7.5C0.410034 11.6421 3.7679 15 7.91003 15Z" fill="#00CD73"/>
    <path d="M9.53602 4.83405C9.76579 4.48941 10.2314 4.39628 10.5761 4.62604C10.8961 4.83939 10.9993 5.25614 10.8284 5.59053L10.7841 5.66611L7.7841 10.1661C7.52013 10.5621 6.9666 10.6101 6.63716 10.288L6.57441 10.2186L5.07441 8.3436C4.81565 8.02015 4.86809 7.54819 5.19154 7.28943C5.49011 7.05058 5.91522 7.07689 6.18238 7.33675L6.24571 7.40656L7.10456 8.48033L9.53602 4.83405Z" fill="white"/>
  </g>
  <defs>
    <clipPath id="clip0_215_13325">
      <rect width="15" height="15" fill="white" transform="translate(0.410034)"/>
    </clipPath>
  </defs>
</svg>