<svg xmlns="http://www.w3.org/2000/svg" width="20" height="25" viewBox="0 0 20 25" fill="none">
  <path d="M13.4044 0.655762C18.2857 0.655762 19.8389 2.09785 19.8389 7.08971V18.1827C19.8389 23.0637 18.3967 24.6167 13.4044 24.6167H6.74812C1.86682 24.6167 0.424622 23.1746 0.424622 18.1827V7.08971C0.424622 2.20878 1.86682 0.655762 6.74812 0.655762H13.4044ZM13.6263 2.31972H6.74812C2.86527 2.31972 2.0887 3.09623 2.0887 6.75692V18.0718C2.0887 22.0653 2.86527 22.7309 6.74812 22.7309H13.4044C17.3982 22.7309 18.0638 21.9544 18.0638 18.0718V6.97879C18.0638 3.20716 17.3982 2.43065 13.6263 2.31972ZM10.0763 16.186C11.5185 16.186 12.6279 17.2953 12.6279 18.7374C12.6279 20.1795 11.5185 21.2888 10.0763 21.2888C8.63407 21.2888 7.52469 20.1795 7.52469 18.7374C7.52469 17.4062 8.63407 16.186 10.0763 16.186ZM10.0763 17.8499C9.63252 17.8499 9.18877 18.2937 9.18877 18.7374C9.18877 19.1811 9.63252 19.6248 10.0763 19.6248C10.52 19.6248 10.9638 19.1811 10.9638 18.7374C10.9638 18.2937 10.52 17.8499 10.0763 17.8499ZM12.295 4.53832C12.7388 4.53832 13.1826 4.87111 13.1826 5.42576C13.1826 5.98041 12.8497 6.31321 12.295 6.31321H7.8575C7.41375 6.31321 6.97 5.98041 6.97 5.42576C6.97 4.87111 7.30281 4.53832 7.8575 4.53832H12.295Z" fill="#231F20"/>
</svg>