<svg xmlns="http://www.w3.org/2000/svg" width="25" height="26" viewBox="0 0 25 26" fill="none">
  <path d="M12.4091 0.916992C19.1764 0.916992 24.6124 6.35257 24.6124 13.1193C24.6124 19.8861 19.1764 25.3216 12.4091 25.3216C5.64186 25.3216 0.205872 19.8861 0.205872 13.1193C0.205872 6.4635 5.64186 0.916992 12.4091 0.916992ZM12.4091 2.58095C6.52937 2.58095 1.86995 7.35095 1.86995 13.1193C1.86995 18.8877 6.64031 23.6577 12.4091 23.6577C18.1779 23.6577 22.9483 18.8877 22.9483 13.1193C22.9483 7.35095 18.1779 2.58095 12.4091 2.58095ZM3.64497 14.5614C3.7559 14.1177 4.3106 13.8958 4.75435 14.1177C7.74969 15.227 9.85752 17.5565 10.6341 20.6626C10.745 21.1063 10.5232 21.55 10.0794 21.6609H9.85752C9.52471 21.6609 9.19189 21.4391 9.08095 20.9954C8.41532 18.5549 6.64031 16.5582 4.19966 15.6707C3.7559 15.4489 3.53403 15.0051 3.64497 14.5614ZM19.9529 14.1177C20.3967 14.0068 20.8404 14.2286 21.0623 14.5614C21.1733 15.0051 20.9514 15.4489 20.6186 15.6707C18.1779 16.5582 16.4029 18.5549 15.7373 20.9954C15.6263 21.3282 15.2935 21.6609 14.9607 21.6609H14.7388C14.2951 21.55 14.0732 21.1063 14.1841 20.6626C14.8498 17.5565 16.9576 15.227 19.9529 14.1177ZM13.5185 12.01C13.9622 12.01 14.406 12.3428 14.406 12.8975C14.406 13.4521 14.0732 13.7849 13.5185 13.7849H11.2997C10.856 13.7849 10.4122 13.4521 10.4122 12.8975C10.4122 12.3428 10.745 12.01 11.2997 12.01H13.5185ZM20.1748 8.90397C20.6186 9.0149 20.8404 9.45863 20.7295 9.90235C20.6186 10.3461 20.1748 10.5679 19.7311 10.457C14.8498 9.12584 9.85752 9.12584 4.97623 10.457H4.75435C4.42154 10.457 4.08872 10.2351 3.97778 9.79141C3.86684 9.34769 4.08872 8.90398 4.53247 8.79305C9.74659 7.57281 14.9607 7.57281 20.1748 8.90397Z" fill="#231F20"/>
</svg>